<?xml version="1.0" encoding="UTF-8" standalone="no"?>
<!-- Created with Inkscape (http://www.inkscape.org/) -->

<svg
   width="512"
   height="512"
   viewBox="0 0 512 512"
   version="1.1"
   id="svg1"
   inkscape:version="1.4.2 (ebf0e940d0, 2025-05-08)"
   sodipodi:docname="drawing-white.svg"
   xmlns:inkscape="http://www.inkscape.org/namespaces/inkscape"
   xmlns:sodipodi="http://sodipodi.sourceforge.net/DTD/sodipodi-0.dtd"
   xmlns="http://www.w3.org/2000/svg"
   xmlns:svg="http://www.w3.org/2000/svg">
  <sodipodi:namedview
     id="namedview1"
     pagecolor="#ffffff"
     bordercolor="#000000"
     borderopacity="0.25"
     inkscape:showpageshadow="2"
     inkscape:pageopacity="0.0"
     inkscape:pagecheckerboard="0"
     inkscape:deskcolor="#d1d1d1"
     inkscape:document-units="px"
     inkscape:zoom="2.0683306"
     inkscape:cx="231.58773"
     inkscape:cy="267.12363"
     inkscape:window-width="1712"
     inkscape:window-height="1366"
     inkscape:window-x="0"
     inkscape:window-y="0"
     inkscape:window-maximized="0"
     inkscape:current-layer="layer4" />
  <defs
     id="defs1" />
  <g
     inkscape:groupmode="layer"
     id="layer4"
     inkscape:label="Layer 2">
    <circle
       style="fill:#fafafa;stroke:none;fill-opacity:1"
       id="path2"
       cx="256"
       cy="256"
       r="256" />
  </g>
  <g
     inkscape:label="Layer 1"
     inkscape:groupmode="layer"
     id="layer1"
     style="display:inline">
    <path
       style="display:inline;fill:#000000;stroke-width:1.01805"
       d="m 307.35411,402.27868 c -2.99942,-0.80661 -5.95656,-3.01407 -7.39839,-5.52279 -1.1631,-2.02376 -1.80742,-5.05365 -1.97996,-9.31071 -0.22447,-5.53708 0.56289,-7.9819 3.46026,-10.74552 2.79471,-2.66569 2.74822,-2.65318 16.93353,-4.55686 14.7336,-1.97721 13.68172,-1.88704 15.99859,-1.37158 3.47641,0.77345 6.22445,3.07017 7.72073,6.45278 0.39728,0.89806 0.70175,1.23882 1.10684,1.23882 0.3074,0 2.45321,-0.47781 4.76851,-1.06183 20.31898,-5.12518 41.26658,-14.84712 56.12699,-26.04895 10.11254,-7.62289 19.70308,-17.32476 26.85279,-27.16463 3.18295,-4.3805 5.94259,-8.4456 5.94259,-8.7537 0,-0.13937 -0.89996,-0.66924 -1.99989,-1.17745 -1.09994,-0.5082 -2.54602,-1.29973 -3.21348,-1.75897 -0.66749,-0.45925 -1.37357,-0.83107 -1.56907,-0.82633 -0.19568,0.005 -0.96157,1.10308 -1.70231,2.44073 -2.50409,4.52199 -8.98247,12.71009 -15.08399,19.06486 -3.68587,3.83885 -12.26773,11.3473 -12.9695,11.3473 -0.52249,0 -8.67184,-21.23924 -8.88813,-23.16467 -0.10929,-0.97208 0.18735,-2.25692 1.49767,-6.48817 5.7467,-18.55766 7.71969,-36.12542 6.1988,-55.19457 -1.30862,-16.40793 -6.15661,-32.86543 -13.17529,-44.72629 -4.67488,-7.90011 -12.21176,-16.19179 -18.58889,-20.45055 -5.54084,-3.70027 -11.33653,-6.19242 -17.67128,-7.5986 -2.28197,-0.50655 -3.51715,-0.59396 -8.591,-0.60796 -5.22065,-0.0146 -6.27359,0.0581 -8.84786,0.60913 -9.56485,2.04745 -17.49194,6.43599 -24.92309,13.79779 -12.50987,12.39319 -20.05257,31.02328 -21.8487,53.96516 -0.34485,4.4059 -0.34383,13.87419 0.002,18.05193 0.14608,1.76499 0.2172,3.25793 0.15717,3.31763 -0.0597,0.0599 -1.66609,-0.83143 -3.56975,-1.9803 -4.2502,-2.565 -9.71555,-5.09462 -14.44123,-6.68399 -7.92656,-2.66593 -12.98828,-2.90578 -20.49193,-0.97105 -5.34326,1.37768 -12.24794,4.46969 -17.90577,8.01838 -1.52845,0.95868 -2.83443,1.68768 -2.90208,1.62001 -0.0677,-0.0678 7.9e-4,-1.74637 0.1523,-3.73045 1.44064,-18.88482 -2.18876,-39.44467 -9.55059,-54.10298 -8.51343,-16.95126 -21.51599,-27.83768 -37.40074,-31.31385 -2.39348,-0.5238 -3.51705,-0.59847 -8.93306,-0.59387 -5.75724,0.006 -6.40468,0.0555 -9.15814,0.71619 -4.26614,1.02362 -6.86212,1.9238 -10.30902,3.57476 -9.24512,4.42818 -17.49857,11.97969 -23.40317,21.41275 -8.17344,13.05778 -12.47023,26.00518 -14.79396,44.57856 -0.5855,4.68016 -0.82053,19.37321 -0.40374,25.24333 0.82595,11.63236 3.47963,24.78469 7.14936,35.43379 0.52413,1.52099 0.95297,3.20109 0.95297,3.73354 0,1.56427 -4.08702,12.15271 -15.47798,40.09981 -1.87186,4.59253 -4.97746,12.34999 -6.901356,17.23884 -4.29124,10.90469 -3.95009,10.10087 -4.28715,10.10087 -0.15474,0 -4.248,-2.47158 -9.09654,-5.4924 -4.84858,-3.0208 -12.754921,-7.91804 -17.569668,-10.88268 -19.108867,-11.7662 -21.27459,-13.12941 -21.276846,-13.3927 -0.0019,-0.27097 5.33458,-12.80531 6.994281,-16.42691 2.880369,-6.28511 10.332516,-25.09977 10.140133,-25.60107 -0.08014,-0.20896 -1.37409,-0.36429 -3.847697,-0.46184 -4.177297,-0.16472 -6.226135,-0.66579 -9.311725,-2.27724 -3.869831,-2.02099 -7.355487,-5.7831 -8.964324,-9.67524 -0.420433,-1.01719 -0.925312,-1.98433 -1.121929,-2.14915 -0.19672,-0.16488 -0.996055,-0.37478 -1.776517,-0.46651 -3.584468,-0.42127 -7.826366,-2.48599 -10.724812,-5.22025 -3.115601,-2.93909 -4.932087,-6.06159 -5.919087,-10.17494 -0.490446,-2.04388 -0.517196,-3.43244 -0.518965,-26.95994 -0.0019,-28.09704 -0.09923,-26.71959 2.206907,-31.35582 0.924098,-1.85793 1.622992,-2.77479 3.707356,-4.86373 2.189456,-2.19424 2.94629,-2.76042 5.127488,-3.83577 1.705217,-0.84071 3.366306,-1.42356 4.97927,-1.74711 2.061882,-0.41362 2.467153,-0.58357 2.736212,-1.14735 0.173822,-0.36396 0.804471,-1.69208 1.401743,-2.95131 1.993776,-4.2037 4.956059,-7.1565 9.333722,-9.30387 2.742213,-1.34512 5.164401,-1.888 9.617317,-2.15547 1.657826,-0.0995 2.988096,-0.30565 3.129686,-0.48481 0.13531,-0.17135 0.398956,-0.97825 0.585615,-1.79307 0.602721,-2.63099 3.487252,-12.08838 4.754276,-15.58778 7.48601,-20.67543 17.357604,-38.22363 31.295544,-55.63233 9.986536,-12.47336 23.600426,-25.37896 36.689946,-34.781046 6.36116,-4.569185 22.54053,-14.671421 23.49552,-14.670342 0.18145,2.04e-4 0.54061,0.718162 0.79839,1.595457 0.35125,1.195329 0.79004,1.923169 1.75084,2.904191 1.6105,1.644419 2.98733,2.308378 5.08013,2.449827 1.49212,0.100862 1.93785,-0.01283 4.84843,-1.235798 9.16015,-3.849133 19.93568,-7.43767 30.8143,-10.261966 10.43938,-2.710257 24.60697,-5.009538 37.03659,-6.010727 5.71749,-0.460538 25.28129,-0.462099 30.97604,-0.0024 17.64248,1.423943 32.44865,4.272812 50.23503,9.66578 3.61419,1.095846 13.81692,4.866306 17.46175,6.453051 2.64212,1.150227 3.60514,1.44314 4.71376,1.433734 3.46487,-0.02949 6.54303,-2.397661 7.51165,-5.779347 0.16966,-0.592586 0.34174,-1.122192 0.38195,-1.176907 0.0971,-0.131701 7.33232,3.934918 10.73849,6.03571 14.48872,8.936113 25.2543,17.459183 36.79301,29.129033 6.06572,6.13466 9.01475,9.40898 13.42009,14.90043 16.30229,20.32158 27.67687,42.75163 34.73631,68.49807 0.60019,2.18893 1.16325,4.09637 1.25123,4.23877 0.0881,0.14238 1.4149,0.25888 2.94866,0.25888 6.20423,0 10.85245,1.74197 15.00852,5.62454 2.02559,1.89232 3.90178,4.67834 4.82841,7.16992 0.33065,0.88886 0.7023,1.75108 0.82598,1.91603 0.12352,0.16494 0.89846,0.37905 1.72174,0.47582 7.54461,0.88672 14.65508,7.58199 16.54502,15.57894 0.54256,2.29567 0.55323,2.90617 0.47958,27.33974 l -0.0753,24.99161 -0.63718,1.88549 c -1.46117,4.32392 -4.14217,8.27855 -7.15695,10.55687 -2.24182,1.69417 -5.46101,3.20627 -7.92386,3.72193 -1.13276,0.23719 -2.34011,0.48934 -2.68293,0.56036 -0.40205,0.0832 -0.73047,0.43658 -0.92501,0.99504 -0.83083,2.38525 -2.52939,5.2133 -4.18575,6.96913 -4.27518,4.53193 -9.11904,6.41505 -16.51341,6.41987 -3.58642,0.002 -3.21539,-0.21785 -5.22287,3.09963 -4.30789,7.11905 -11.26814,16.31548 -17.42183,23.01903 -9.66804,10.53196 -22.62182,20.39379 -37.26161,28.36756 -13.2998,7.24392 -26.17256,12.16797 -42.42368,16.2278 -2.14814,0.53663 -4.0386,1.1185 -4.20107,1.29302 -0.16237,0.17451 -0.44434,1.01624 -0.62634,1.87049 -0.95341,4.47431 -4.32194,8.26544 -8.29454,9.33515 -1.76244,0.47459 -24.02677,3.27116 -25.75613,3.2352 -0.46866,-0.009 -1.50603,-0.19361 -2.30535,-0.40856 z m -237.680077,-95.45 c 1.987774,-0.19236 2.802826,-0.41217 4.108255,-1.10796 2.971825,-1.58397 4.812146,-4.24947 5.382216,-7.7956 0.33168,-2.06419 0.36485,-66.40395 0.0378,-73.80378 -0.17243,-3.90356 -0.311903,-4.98157 -0.811267,-6.27187 -0.84128,-2.1741 -3.017587,-4.46633 -5.195037,-5.47186 l -1.692105,-0.78138 -7.114569,-0.0839 c -6.025528,-0.0712 -7.324331,-0.0164 -8.484736,0.35875 -3.071018,0.99229 -5.48148,3.26079 -6.648199,6.25657 -0.460609,1.18275 -0.640503,2.34602 -0.760269,4.91632 l -0.157167,3.36696 -5.117774,0.13468 c -4.833136,0.12719 -5.20281,0.17455 -6.646395,0.85127 -2.813373,1.31885 -5.130782,4.00461 -5.989619,6.94162 -0.37651,1.28762 -0.426991,4.25871 -0.421197,24.78084 0.0036,14.74134 0.106861,23.75257 0.278947,24.49982 0.791841,3.43478 2.986294,6.2216 6.118269,7.76983 l 2.052029,1.01436 4.8628,0.13462 4.8628,0.13462 0.170005,2.82825 c 0.187353,3.11356 0.801243,5.14078 2.100255,6.93397 1.635413,2.25762 4.453748,3.98643 7.142289,4.38121 1.953078,0.28679 9.011753,0.29422 11.922134,0.0128 z M 456.2035,306.37774 c 1.82867,-0.61886 3.99429,-2.12887 5.06588,-3.53228 1.47949,-1.93767 2.07544,-3.8406 2.25779,-7.20988 l 0.1603,-2.96294 4.84845,-0.16454 c 2.66664,-0.0905 5.25255,-0.2971 5.7465,-0.4591 3.55287,-1.16504 6.57183,-4.7383 7.31525,-8.65827 0.34864,-1.83842 0.36502,-45.61489 0.0174,-47.73429 -0.56457,-3.44662 -2.9403,-6.64634 -6.0764,-8.18385 -1.57546,-0.77243 -1.74487,-0.79575 -6.7339,-0.92704 l -5.11781,-0.13468 -0.16687,-2.82825 c -0.0919,-1.55554 -0.31607,-3.37166 -0.49867,-4.03585 -0.86952,-3.16529 -3.01142,-5.73591 -5.93285,-7.12042 l -1.75159,-0.83011 h -7.40731 -7.40734 l -1.54488,0.72404 c -2.97673,1.39508 -4.51604,3.0443 -5.6765,6.08179 l -0.58997,1.54423 -0.0726,38.76001 c -0.0805,42.8234 -0.16688,40.50383 1.62184,43.46245 1.22825,2.03154 3.12613,3.44694 5.72348,4.26835 0.74536,0.23571 3.21223,0.34631 8.00395,0.35877 5.708,0.0142 7.15325,-0.0588 8.2154,-0.41813 z M 81.200294,205.53657 c 0.0912,-0.14769 0.71295,-2.23855 1.38152,-4.64642 2.7878,-10.04013 5.99368,-18.46607 10.63311,-27.94663 13.940996,-28.48803 34.126376,-49.50192 62.732456,-65.30722 6.54345,-3.61535 19.19584,-9.116542 26.93568,-11.71148 12.94212,-4.339104 30.40718,-8.27943 43.63581,-9.84476 12.10086,-1.431888 27.19263,-2.14866 36.76721,-1.746238 27.81999,1.16928 53.48428,6.320225 75.41994,15.137107 7.13775,2.868991 17.19184,7.872861 23.70338,11.797121 28.02853,16.89166 48.85567,41.71381 61.32265,73.08545 2.50013,6.29127 3.98974,10.82501 6.53936,19.90275 0.2394,0.85186 0.55048,1.54881 0.69161,1.54881 0.14119,0 0.93509,-0.43403 1.76437,-0.96451 1.4975,-0.95795 4.08848,-1.99842 4.97642,-1.99842 1.0682,0 1.14226,-0.64828 0.39046,-3.41825 -3.09737,-11.41255 -7.47439,-22.79008 -12.88127,-33.48365 -4.62014,-9.1375 -11.11025,-19.77509 -12.84953,-21.06101 -0.45263,-0.33465 -0.79642,-0.83873 -0.79642,-1.16772 0,-0.63433 -1.09632,-2.25171 -4.50881,-6.65188 -11.35303,-14.63903 -24.42999,-26.99585 -40.3391,-38.117735 -4.08589,-2.856392 -11.65812,-7.613503 -12.11892,-7.613503 -0.17487,0 -1.05787,0.593866 -1.96228,1.319698 -2.89006,2.319418 -6.71215,3.723737 -9.38422,3.44796 -0.89536,-0.09239 -3.58044,-1.053167 -7.54779,-2.700719 -8.01265,-3.327462 -10.6851,-4.330459 -17.24342,-6.471616 -13.89951,-4.537918 -27.96446,-7.380802 -44.29388,-8.952924 -6.89145,-0.66348 -25.54311,-0.818383 -32.83514,-0.272702 -22.38431,1.675079 -41.51322,6.185913 -63.15538,14.892823 -4.5877,1.84569 -8.89462,3.421328 -9.57093,3.50143 -2.51582,0.297964 -6.79297,-1.30571 -9.52659,-3.571873 l -1.58049,-1.310253 -1.65178,0.910126 c -2.20262,1.213633 -7.55742,4.682691 -11.97425,7.757401 -20.37117,14.181037 -38.7468,33.998077 -51.641386,55.692267 -6.75735,11.3687 -12.24747,23.57614 -16.232663,36.09382 -1.475747,4.63538 -3.013875,9.95158 -3.014362,10.41846 -1.02e-4,0.10058 0.690428,0.38368 1.534521,0.62906 1.764444,0.51295 4.220181,1.70129 5.199994,2.51633 0.74192,0.61713 1.22706,0.71837 1.48012,0.30889 z M 415.51565,382.57051 c -1.27064,-3.22217 -2.97106,-7.61606 -3.77874,-9.76418 -0.80765,-2.14811 -1.54441,-4.09571 -1.63721,-4.32796 -0.12421,-0.3106 0.52848,-0.91507 2.46743,-2.28552 13.17403,-9.31115 25.75627,-22.19931 34.75159,-35.59649 1.47151,-2.19161 2.95988,-4.49853 3.30752,-5.1265 0.34765,-0.62794 0.68159,-1.09222 0.74217,-1.03167 0.16062,0.16054 3.96217,8.99123 5.22614,12.13964 1.14716,2.85744 6.41357,15.24453 8.29629,19.51375 l 1.12202,2.54424 -0.61056,0.46053 c -0.33585,0.2533 -4.19227,2.6747 -8.56995,5.38089 -4.37765,2.70618 -11.17147,6.91734 -15.09734,9.35818 -15.35525,9.54673 -23.57566,14.5936 -23.77036,14.5936 -0.0762,0 -1.17834,-2.63631 -2.449,-5.85851 z M 254.02273,346.65862 c -0.95949,-0.58493 -1.21273,-0.80059 -19.42313,-16.53906 -23.66186,-20.4499 -26.32311,-22.79462 -26.62558,-23.45842 -0.17072,-0.37435 -0.31018,-1.17028 -0.31018,-1.76869 0,-0.97238 0.16446,-1.24612 1.54812,-2.57551 4.27541,-4.10802 14.77246,-12.36594 20.80849,-16.3699 6.66514,-4.4213 11.6671,-7.03678 17.02856,-8.90412 8.30152,-2.89133 13.98599,-2.2046 24.67598,2.98112 8.59264,4.16829 16.6203,9.80739 28.62047,20.10467 3.52101,3.02137 4.01749,3.66484 4.01749,5.20703 0,1.29147 -0.66063,1.96995 -8.61543,8.84806 -8.59802,7.43423 -14.51457,12.57376 -25.31464,21.98999 -10.23686,8.92519 -11.19087,9.73053 -12.39932,10.46704 -1.20687,0.73556 -2.82182,0.74272 -4.01091,0.0178 z"
       id="path1" />
  </g>
</svg>
